<svg width="90" height="42" viewBox="0 0 90 42" fill="none" xmlns="http://www.w3.org/2000/svg">
<g id="Footer">
<path id="AProjectby" fill-rule="evenodd" clip-rule="evenodd" d="M58.8955 9.24121C58.4248 9.8252 57.7715 10.1172 56.9355 10.1172C56.5176 10.1172 56.1357 10.04 55.79 9.88574C55.4443 9.73145 55.1543 9.49414 54.9199 9.17383H54.8496L54.6445 10H53.9473V0.882812H54.9199V3.09766C54.9199 3.59375 54.9043 4.03906 54.873 4.43359H54.9199C55.373 3.79297 56.0449 3.47266 56.9355 3.47266C57.7793 3.47266 58.4346 3.76074 58.9014 4.33691C59.3682 4.91309 59.6016 5.72852 59.6016 6.7832C59.6016 7.83789 59.3662 8.65723 58.8955 9.24121ZM32.0098 2.32715C31.8965 2.43457 31.7617 2.48828 31.6055 2.48828C31.4414 2.48828 31.3047 2.43457 31.1953 2.32715C31.0859 2.21973 31.0312 2.05664 31.0312 1.83789C31.0312 1.61523 31.0859 1.45215 31.1953 1.34863C31.3047 1.24512 31.4414 1.19336 31.6055 1.19336C31.7617 1.19336 31.8965 1.24609 32.0098 1.35156C32.123 1.45703 32.1797 1.61914 32.1797 1.83789C32.1797 2.05664 32.123 2.21973 32.0098 2.32715ZM2.0625 7.27539L1.00781 10H0L3.38672 1.39844H4.22461L7.59375 10H6.5625L5.49609 7.27539H2.0625ZM2.41406 6.37891H5.18555L4.18945 3.72461C4.06055 3.38867 3.92773 2.97656 3.79102 2.48828C3.70508 2.86328 3.58203 3.27539 3.42188 3.72461L2.41406 6.37891ZM12.8848 10V6.63086H13.8926C14.9941 6.63086 15.8408 6.39746 16.4326 5.93066C17.0244 5.46387 17.3203 4.79688 17.3203 3.92969C17.3203 2.26562 16.25 1.43359 14.1094 1.43359H11.8887V10H12.8848ZM12.8848 5.77539H13.7812C14.6641 5.77539 15.3027 5.63281 15.6973 5.34766C16.0918 5.0625 16.2891 4.60547 16.2891 3.97656C16.2891 3.41016 16.1035 2.98828 15.7324 2.71094C15.3613 2.43359 14.7832 2.29492 13.998 2.29492H12.8848V5.77539ZM19.9395 10V6.55469C19.9395 5.92578 20.124 5.40039 20.4932 4.97852C20.8623 4.55664 21.3066 4.3457 21.8262 4.3457C22.0293 4.3457 22.2637 4.375 22.5293 4.43359L22.6641 3.53125C22.4375 3.48438 22.1816 3.46094 21.8965 3.46094C21.4941 3.46094 21.125 3.57422 20.7891 3.80078C20.4531 4.02734 20.166 4.34961 19.9277 4.76758H19.8809L19.7695 3.57812H18.9668V10H19.9395ZM28.6172 9.23535C28.0898 9.82324 27.3613 10.1172 26.4316 10.1172C25.8574 10.1172 25.3477 9.98242 24.9023 9.71289C24.457 9.44336 24.1133 9.05664 23.8711 8.55273C23.6289 8.04883 23.5078 7.45898 23.5078 6.7832C23.5078 5.73633 23.7695 4.9209 24.293 4.33691C24.8164 3.75293 25.543 3.46094 26.4727 3.46094C27.3711 3.46094 28.085 3.75977 28.6143 4.35742C29.1436 4.95508 29.4082 5.76367 29.4082 6.7832C29.4082 7.83008 29.1445 8.64746 28.6172 9.23535ZM26.4551 9.30273C25.8184 9.30273 25.3359 9.08789 25.0078 8.6582C24.6797 8.22852 24.5156 7.60352 24.5156 6.7832C24.5156 5.95508 24.6777 5.33203 25.002 4.91406C25.3262 4.49609 25.8066 4.28711 26.4434 4.28711C27.0879 4.28711 27.5752 4.49902 27.9053 4.92285C28.2354 5.34668 28.4004 5.9668 28.4004 6.7832C28.4004 7.60742 28.2354 8.2334 27.9053 8.66113C27.5752 9.08887 27.0918 9.30273 26.4551 9.30273ZM30.334 12.8828C31.502 12.8828 32.0859 12.25 32.0859 10.9844V3.57812H31.1133V11.0547C31.1133 11.3945 31.042 11.6475 30.8994 11.8135C30.7568 11.9795 30.5332 12.0625 30.2285 12.0625C29.9668 12.0625 29.7012 12.0234 29.4316 11.9453V12.7363C29.6621 12.834 29.9629 12.8828 30.334 12.8828ZM37.9717 10.0205C37.665 10.085 37.2949 10.1172 36.8613 10.1172C35.9121 10.1172 35.1631 9.82812 34.6143 9.25C34.0654 8.67188 33.791 7.86914 33.791 6.8418C33.791 5.80664 34.0459 4.98438 34.5557 4.375C35.0654 3.76562 35.75 3.46094 36.6094 3.46094C37.4141 3.46094 38.0508 3.72559 38.5195 4.25488C38.9883 4.78418 39.2227 5.48242 39.2227 6.34961V6.96484H34.7988C34.8184 7.71875 35.0088 8.29102 35.3701 8.68164C35.7314 9.07227 36.2402 9.26758 36.8965 9.26758C37.5879 9.26758 38.2715 9.12305 38.9473 8.83398V9.70117C38.6035 9.84961 38.2783 9.95605 37.9717 10.0205ZM38.1797 6.17383H34.8223C34.877 5.58008 35.0576 5.11523 35.3643 4.7793C35.6709 4.44336 36.082 4.27539 36.5977 4.27539C37.1055 4.27539 37.4961 4.43848 37.7695 4.76465C38.043 5.09082 38.1797 5.56055 38.1797 6.17383ZM45.0703 9.7832C44.6406 10.0059 44.0996 10.1172 43.4473 10.1172C42.5176 10.1172 41.7979 9.83105 41.2881 9.25879C40.7783 8.68652 40.5234 7.87695 40.5234 6.83008C40.5234 5.75586 40.7822 4.92578 41.2998 4.33984C41.8174 3.75391 42.5547 3.46094 43.5117 3.46094C43.8203 3.46094 44.1289 3.49414 44.4375 3.56055C44.7461 3.62695 44.9883 3.70508 45.1641 3.79492L44.8652 4.62109C44.6504 4.53516 44.416 4.46387 44.1621 4.40723C43.9082 4.35059 43.6836 4.32227 43.4883 4.32227C42.1836 4.32227 41.5312 5.1543 41.5312 6.81836C41.5312 7.60742 41.6904 8.21289 42.0088 8.63477C42.3271 9.05664 42.7988 9.26758 43.4238 9.26758C43.959 9.26758 44.5078 9.15234 45.0703 8.92188V9.7832ZM48.5273 10.1172C48.6914 10.1172 48.876 10.1006 49.0811 10.0674C49.2861 10.0342 49.4414 9.99219 49.5469 9.94141V9.19727C49.4531 9.22461 49.3262 9.25098 49.166 9.27637C49.0059 9.30176 48.8398 9.31445 48.668 9.31445C48.3477 9.31445 48.0957 9.21094 47.9121 9.00391C47.7285 8.79688 47.6367 8.5 47.6367 8.11328V4.33398H49.5V3.57812H47.6367V2.08984H47.0742L46.6641 3.46094L45.7441 3.86523V4.33398H46.6641V8.1543C46.6641 9.46289 47.2852 10.1172 48.5273 10.1172ZM56.8184 9.30273C56.1543 9.30273 55.6719 9.1084 55.3711 8.71973C55.0703 8.33105 54.9199 7.68555 54.9199 6.7832C54.9199 5.88086 55.0664 5.23926 55.3594 4.8584C55.6523 4.47754 56.1309 4.28711 56.7949 4.28711C57.4082 4.28711 57.8613 4.49219 58.1543 4.90234C58.4473 5.3125 58.5938 5.93555 58.5938 6.77148C58.5938 7.58789 58.4473 8.21387 58.1543 8.64941C57.8613 9.08496 57.416 9.30273 56.8184 9.30273ZM62.5869 12.4287C62.2217 12.7314 61.7734 12.8828 61.2422 12.8828C60.9453 12.8828 60.6523 12.8496 60.3633 12.7832V12.0039C60.5781 12.0508 60.8184 12.0742 61.084 12.0742C61.752 12.0742 62.2285 11.6992 62.5137 10.9492L62.8711 10.0352L60.2812 3.57812H61.3242L62.7305 7.24023C63.0391 8.07617 63.2305 8.67969 63.3047 9.05078H63.3516C63.4023 8.85156 63.5088 8.51074 63.6709 8.02832C63.833 7.5459 64.3633 6.0625 65.2617 3.57812H66.3047L63.5449 10.8906C63.2715 11.6133 62.9521 12.126 62.5869 12.4287Z" fill="white"/>
<g id="Logo">
<path id="Fill 1" fill-rule="evenodd" clip-rule="evenodd" d="M16.2993 25.305C17.2408 25.305 18.0043 26.0685 18.0043 27.01C18.0043 27.952 17.2408 28.7155 16.2993 28.7155C15.3573 28.7155 14.5938 27.952 14.5938 27.01C14.5938 26.0685 15.3573 25.305 16.2993 25.305Z" fill="#4184F4"/>
<path id="Fill 2" fill-rule="evenodd" clip-rule="evenodd" d="M16.2993 34.2915C17.2408 34.2915 18.0043 35.055 18.0043 35.997C18.0043 36.9385 17.2408 37.702 16.2993 37.702C15.3573 37.702 14.5938 36.9385 14.5938 35.997C14.5938 35.055 15.3573 34.2915 16.2993 34.2915Z" fill="#4184F4"/>
<path id="Fill 3" fill-rule="evenodd" clip-rule="evenodd" d="M16.2993 29.7985C17.2408 29.7985 18.0043 30.562 18.0043 31.5035C18.0043 32.4455 17.2408 33.209 16.2993 33.209C15.3573 33.209 14.5938 32.4455 14.5938 31.5035C14.5938 30.562 15.3573 29.7985 16.2993 29.7985Z" fill="#4184F4"/>
<path id="Fill 4" fill-rule="evenodd" clip-rule="evenodd" d="M12.4816 23.243C13.3031 23.243 13.9691 23.909 13.9691 24.7305C13.9691 25.552 13.3031 26.218 12.4816 26.218C11.6601 26.218 10.9941 25.552 10.9941 24.7305C10.9941 23.909 11.6601 23.243 12.4816 23.243Z" fill="#33A852"/>
<path id="Fill 5" fill-rule="evenodd" clip-rule="evenodd" d="M12.4738 36.79C13.2953 36.79 13.9613 37.456 13.9613 38.2775C13.9613 39.099 13.2953 39.765 12.4738 39.765C11.6523 39.765 10.9863 39.099 10.9863 38.2775C10.9863 37.456 11.6523 36.79 12.4738 36.79Z" fill="#33A852"/>
<path id="Fill 6" fill-rule="evenodd" clip-rule="evenodd" d="M12.4738 32.3005C13.2953 32.3005 13.9613 32.9665 13.9613 33.788C13.9613 34.6095 13.2953 35.2755 12.4738 35.2755C11.6523 35.2755 10.9863 34.6095 10.9863 33.788C10.9863 32.9665 11.6523 32.3005 12.4738 32.3005Z" fill="#33A852"/>
<path id="Fill 7" fill-rule="evenodd" clip-rule="evenodd" d="M12.4738 27.7245C13.2953 27.7245 13.9613 28.3905 13.9613 29.212C13.9613 30.0335 13.2953 30.6995 12.4738 30.6995C11.6523 30.6995 10.9863 30.0335 10.9863 29.212C10.9863 28.3905 11.6523 27.7245 12.4738 27.7245Z" fill="#33A852"/>
<path id="Fill 8" fill-rule="evenodd" clip-rule="evenodd" d="M8.64798 21.307C9.33948 21.307 9.89998 21.8675 9.89998 22.559C9.89998 23.2505 9.33948 23.8105 8.64798 23.8105C7.95648 23.8105 7.39648 23.2505 7.39648 22.559C7.39648 21.8675 7.95648 21.307 8.64798 21.307Z" fill="#FBBB03"/>
<path id="Fill 9" fill-rule="evenodd" clip-rule="evenodd" d="M8.64798 39.1895C9.33948 39.1895 9.89998 39.7495 9.89998 40.441C9.89998 41.1325 9.33948 41.693 8.64798 41.693C7.95648 41.693 7.39648 41.1325 7.39648 40.441C7.39648 39.7495 7.95648 39.1895 8.64798 39.1895Z" fill="#FBBB03"/>
<path id="Fill 10" fill-rule="evenodd" clip-rule="evenodd" d="M8.64798 34.7045C9.33948 34.7045 9.89998 35.2645 9.89998 35.956C9.89998 36.6475 9.33948 37.208 8.64798 37.208C7.95648 37.208 7.39648 36.6475 7.39648 35.956C7.39648 35.2645 7.95648 34.7045 8.64798 34.7045Z" fill="#FBBB03"/>
<path id="Fill 11" fill-rule="evenodd" clip-rule="evenodd" d="M8.64798 30.2435C9.33948 30.2435 9.89998 30.804 9.89998 31.495C9.89998 32.1865 9.33948 32.747 8.64798 32.747C7.95648 32.747 7.39648 32.1865 7.39648 31.495C7.39648 30.804 7.95648 30.2435 8.64798 30.2435Z" fill="#FBBB03"/>
<path id="Fill 12" fill-rule="evenodd" clip-rule="evenodd" d="M8.64798 25.7725C9.33948 25.7725 9.89998 26.333 9.89998 27.024C9.89998 27.7155 9.33948 28.276 8.64798 28.276C7.95648 28.276 7.39648 27.7155 7.39648 27.024C7.39648 26.333 7.95648 25.7725 8.64798 25.7725Z" fill="#FBBB03"/>
<path id="Fill 13" fill-rule="evenodd" clip-rule="evenodd" d="M4.77746 23.6945C5.37846 23.6945 5.86596 24.182 5.86596 24.783C5.86596 25.384 5.37846 25.8715 4.77746 25.8715C4.17646 25.8715 3.68896 25.384 3.68896 24.783C3.68896 24.182 4.17646 23.6945 4.77746 23.6945Z" fill="#E94234"/>
<path id="Fill 14" fill-rule="evenodd" clip-rule="evenodd" d="M4.77746 37.129C5.37846 37.129 5.86596 37.616 5.86596 38.2175C5.86596 38.8185 5.37846 39.306 4.77746 39.306C4.17646 39.306 3.68896 38.8185 3.68896 38.2175C3.68896 37.616 4.17646 37.129 4.77746 37.129Z" fill="#E94234"/>
<path id="Fill 15" fill-rule="evenodd" clip-rule="evenodd" d="M4.77746 32.694C5.37846 32.694 5.86596 33.1815 5.86596 33.7825C5.86596 34.3835 5.37846 34.871 4.77746 34.871C4.17646 34.871 3.68896 34.3835 3.68896 33.7825C3.68896 33.1815 4.17646 32.694 4.77746 32.694Z" fill="#E94234"/>
<path id="Fill 16" fill-rule="evenodd" clip-rule="evenodd" d="M4.77746 28.128C5.37846 28.128 5.86596 28.6155 5.86596 29.2165C5.86596 29.8175 5.37846 30.305 4.77746 30.305C4.17646 30.305 3.68896 29.8175 3.68896 29.2165C3.68896 28.6155 4.17646 28.128 4.77746 28.128Z" fill="#E94234"/>
<path id="Fill 17" fill-rule="evenodd" clip-rule="evenodd" d="M0.907 26.088C1.408 26.088 1.814 26.494 1.814 26.995C1.814 27.496 1.408 27.902 0.907 27.902C0.406 27.902 0 27.496 0 26.995C0 26.494 0.406 26.088 0.907 26.088Z" fill="#4184F4"/>
<path id="Fill 18" fill-rule="evenodd" clip-rule="evenodd" d="M0.907 35.086C1.408 35.086 1.814 35.492 1.814 35.993C1.814 36.494 1.408 36.9 0.907 36.9C0.406 36.9 0 36.494 0 35.993C0 35.492 0.406 35.086 0.907 35.086Z" fill="#4184F4"/>
<path id="Fill 19" fill-rule="evenodd" clip-rule="evenodd" d="M0.907 30.5925C1.408 30.5925 1.814 30.9985 1.814 31.4995C1.814 32.0005 1.408 32.4065 0.907 32.4065C0.406 32.4065 0 32.0005 0 31.4995C0 30.9985 0.406 30.5925 0.907 30.5925Z" fill="#4184F4"/>
<path id="Fill 20" fill-rule="evenodd" clip-rule="evenodd" d="M63.1377 25.7135C63.7192 25.7125 64.2987 25.717 64.8797 25.7105C64.8692 29.6485 64.8692 33.5895 64.8797 37.527C64.2987 37.52 63.7177 37.5255 63.1367 37.5245C63.1447 33.5875 63.1432 29.65 63.1377 25.7135Z" fill="white"/>
<path id="Fill 21" fill-rule="evenodd" clip-rule="evenodd" d="M57.6955 31.343C57.2235 31.4535 56.794 31.7325 56.491 32.1115C55.7185 33.061 55.738 34.58 56.578 35.483C57.0955 36.0605 57.9385 36.337 58.6935 36.1365C59.3315 35.9825 59.8595 35.49 60.118 34.8925C60.5345 33.9175 60.395 32.6665 59.634 31.8955C59.144 31.386 58.38 31.1685 57.6955 31.343ZM56.112 30.269C57.032 29.6945 58.233 29.509 59.243 29.9515C59.622 30.0975 59.9215 30.374 60.224 30.634C60.232 30.408 60.233 30.1815 60.232 29.9555C60.7885 29.9555 61.3465 29.955 61.904 29.9555C61.905 32.3395 61.903 34.723 61.905 37.106C61.9005 38.0885 61.7375 39.117 61.1665 39.9405C60.6705 40.672 59.861 41.153 59 41.317C58.18 41.47 57.302 41.438 56.53 41.099C55.615 40.7095 54.889 39.9385 54.492 39.032C54.997 38.8105 55.5125 38.614 56.017 38.3885C56.307 39.0195 56.829 39.575 57.516 39.755C58.2925 39.9355 59.2225 39.7665 59.7375 39.1125C60.242 38.4715 60.2595 37.608 60.2225 36.83C59.8275 37.2215 59.361 37.5545 58.811 37.681C57.596 37.9875 56.273 37.5345 55.398 36.661C54.469 35.7615 54.009 34.3955 54.23 33.1185C54.4005 31.954 55.112 30.886 56.112 30.269Z" fill="white"/>
<path id="Fill 22" fill-rule="evenodd" clip-rule="evenodd" d="M40.0623 31.337C39.4983 31.4595 38.9923 31.8085 38.6733 32.2865C38.0328 33.2465 38.1113 34.6515 38.9153 35.498C39.4293 36.046 40.2363 36.321 40.9768 36.1565C41.4273 36.0685 41.8443 35.831 42.1598 35.5005C43.0788 34.5355 43.0553 32.8345 42.0888 31.9105C41.5653 31.399 40.7788 31.1755 40.0623 31.337ZM40.1123 29.729C41.4308 29.587 42.8173 30.1075 43.6683 31.1295C44.8283 32.489 44.9083 34.6235 43.8778 36.077C43.2213 37.0275 42.1238 37.65 40.9718 37.755C39.9053 37.868 38.7928 37.5615 37.9578 36.885C37.0298 36.1505 36.4783 34.978 36.4848 33.798C36.4563 32.7335 36.8633 31.6575 37.6218 30.9005C38.2773 30.2305 39.1813 29.8215 40.1123 29.729Z" fill="white"/>
<path id="Fill 23" fill-rule="evenodd" clip-rule="evenodd" d="M67.9428 32.149C67.6263 32.5705 67.4868 33.1065 67.5043 33.63C68.7168 33.1305 69.9263 32.6255 71.1373 32.121C70.9128 31.6155 70.3773 31.3125 69.8403 31.2695C69.1088 31.1865 68.3748 31.566 67.9428 32.149ZM66.8308 30.883C67.7473 29.8845 69.2378 29.4665 70.5393 29.8435C71.4483 30.0975 72.1973 30.7645 72.6688 31.57C72.8928 31.9285 73.0223 32.3325 73.1958 32.7155C71.4063 33.485 69.5978 34.213 67.7983 34.962C68.0238 35.437 68.4053 35.853 68.8998 36.047C69.6368 36.331 70.5293 36.2345 71.1533 35.735C71.3893 35.554 71.5778 35.323 71.7568 35.087C72.2083 35.3925 72.6638 35.694 73.1163 35.998C72.4528 36.966 71.3708 37.657 70.1933 37.755C68.9298 37.8965 67.5978 37.423 66.7593 36.454C65.3948 34.929 65.4358 32.375 66.8308 30.883Z" fill="white"/>
<path id="Fill 24" fill-rule="evenodd" clip-rule="evenodd" d="M48.9101 31.337C48.4741 31.4345 48.0686 31.6655 47.7641 31.994C46.8791 32.9345 46.8871 34.5685 47.7776 35.504C48.2916 36.0485 49.0946 36.3235 49.8301 36.157C50.2986 36.067 50.7296 35.8125 51.0481 35.4605C51.9276 34.489 51.8896 32.817 50.9371 31.9075C50.4121 31.394 49.6246 31.173 48.9101 31.337ZM48.8106 29.752C50.0831 29.562 51.4481 30.002 52.3371 30.941C53.6651 32.295 53.7961 34.611 52.6786 36.1315C52.0216 37.053 50.9441 37.6515 49.8196 37.753C48.7816 37.863 47.7011 37.573 46.8766 36.9265C45.9216 36.1965 45.3491 35.0045 45.3561 33.804C45.3251 32.734 45.7331 31.653 46.4946 30.896C47.1086 30.268 47.9416 29.867 48.8106 29.752Z" fill="white"/>
<path id="Fill 25" fill-rule="evenodd" clip-rule="evenodd" d="M25.576 27.062C26.7965 25.864 28.515 25.18 30.229 25.246C31.7595 25.2515 33.2585 25.896 34.3435 26.9665C33.9405 27.3595 33.542 27.7575 33.149 28.1605C32.341 27.4055 31.26 26.944 30.149 26.939C28.891 26.9085 27.625 27.421 26.7685 28.3485C25.94 29.219 25.4955 30.4305 25.534 31.6295C25.554 33.1385 26.3765 34.614 27.6705 35.403C28.708 36.0595 30.011 36.212 31.198 35.95C32.034 35.7695 32.797 35.302 33.3615 34.6635C33.8445 34.1045 34.0675 33.372 34.1595 32.6505C32.7925 32.6465 31.4255 32.6495 30.0585 32.6485C30.0585 32.0795 30.0575 31.5095 30.0585 30.9395C31.978 30.9385 33.8965 30.9405 35.815 30.9385C36.0565 32.369 35.836 33.908 35.088 35.164C34.315 36.395 33.0345 37.305 31.6095 37.6135C30.3755 37.879 29.06 37.8345 27.8705 37.395C26.32 36.836 25 35.6605 24.2845 34.175C23.702 32.99 23.5305 31.6135 23.7875 30.32C24.0305 29.085 24.669 27.9345 25.576 27.062Z" fill="white"/>
<path id="Fill 26" fill-rule="evenodd" clip-rule="evenodd" d="M88.5586 37.6035H90.0001V26.19H88.5586V37.6035Z" fill="white"/>
<path id="Fill 27" fill-rule="evenodd" clip-rule="evenodd" d="M80.2863 33.11H83.9523L82.1193 28.139L80.2863 33.11ZM82.9988 26.19L87.2298 37.6035H85.6093L84.4828 34.548H79.7558L78.6293 37.6035H77.0088L81.2393 26.19H82.9988Z" fill="white"/>
</g>
</g>
</svg>
